<mxfile host="app.diagrams.net" modified="2021-04-10T20:57:23.197Z" agent="5.0 (Windows NT 10.0; Win64; x64) AppleWebKit/537.36 (KHTML, like Gecko) Chrome/89.0.4389.114 Safari/537.36 Edg/89.0.774.68" etag="wcHprEfAYCuC66v9TC4P" version="14.5.7" type="github">
  <diagram id="R2lEEEUBdFMjLlhIrx00" name="Page-1">
    <mxGraphModel dx="2097" dy="1319" grid="0" gridSize="10" guides="1" tooltips="1" connect="1" arrows="1" fold="1" page="0" pageScale="1" pageWidth="850" pageHeight="1100" math="0" shadow="0" extFonts="Permanent Marker^https://fonts.googleapis.com/css?family=Permanent+Marker">
      <root>
        <mxCell id="0" />
        <mxCell id="1" parent="0" />
        <mxCell id="_YOtzz9naKi3cMkrxV0r-38" value="" style="group" vertex="1" connectable="0" parent="1">
          <mxGeometry x="-96" y="-47" width="400" height="162" as="geometry" />
        </mxCell>
        <mxCell id="rfzxkzYXNz0C6N27dNwW-1" value="用户" style="rounded=0;whiteSpace=wrap;html=1;" parent="_YOtzz9naKi3cMkrxV0r-38" vertex="1">
          <mxGeometry x="140" y="102" width="120" height="60" as="geometry" />
        </mxCell>
        <mxCell id="_YOtzz9naKi3cMkrxV0r-14" style="orthogonalLoop=1;jettySize=auto;html=1;exitX=1;exitY=1;exitDx=0;exitDy=0;endArrow=none;endFill=0;strokeColor=#000000;" edge="1" parent="_YOtzz9naKi3cMkrxV0r-38" source="rfzxkzYXNz0C6N27dNwW-2" target="rfzxkzYXNz0C6N27dNwW-1">
          <mxGeometry relative="1" as="geometry" />
        </mxCell>
        <mxCell id="rfzxkzYXNz0C6N27dNwW-2" value="用户名" style="ellipse;whiteSpace=wrap;html=1;" parent="_YOtzz9naKi3cMkrxV0r-38" vertex="1">
          <mxGeometry x="40" y="2" width="90" height="60" as="geometry" />
        </mxCell>
        <mxCell id="_YOtzz9naKi3cMkrxV0r-13" style="orthogonalLoop=1;jettySize=auto;html=1;exitX=0.5;exitY=1;exitDx=0;exitDy=0;endArrow=none;endFill=0;strokeColor=#000000;" edge="1" parent="_YOtzz9naKi3cMkrxV0r-38" source="rfzxkzYXNz0C6N27dNwW-4" target="rfzxkzYXNz0C6N27dNwW-1">
          <mxGeometry relative="1" as="geometry" />
        </mxCell>
        <mxCell id="rfzxkzYXNz0C6N27dNwW-4" value="密码" style="ellipse;whiteSpace=wrap;html=1;" parent="_YOtzz9naKi3cMkrxV0r-38" vertex="1">
          <mxGeometry x="140" width="90" height="60" as="geometry" />
        </mxCell>
        <mxCell id="_YOtzz9naKi3cMkrxV0r-9" style="edgeStyle=orthogonalEdgeStyle;orthogonalLoop=1;jettySize=auto;html=1;exitX=0;exitY=1;exitDx=0;exitDy=0;endArrow=none;endFill=0;strokeColor=none;curved=1;" edge="1" parent="_YOtzz9naKi3cMkrxV0r-38" target="rfzxkzYXNz0C6N27dNwW-1">
          <mxGeometry relative="1" as="geometry">
            <mxPoint x="258.18019484660545" y="3.2132034355963697" as="sourcePoint" />
          </mxGeometry>
        </mxCell>
        <mxCell id="_YOtzz9naKi3cMkrxV0r-12" style="orthogonalLoop=1;jettySize=auto;html=1;exitX=0;exitY=0.5;exitDx=0;exitDy=0;entryX=1;entryY=0.75;entryDx=0;entryDy=0;endArrow=none;endFill=0;strokeColor=#000000;" edge="1" parent="_YOtzz9naKi3cMkrxV0r-38" source="rfzxkzYXNz0C6N27dNwW-10" target="rfzxkzYXNz0C6N27dNwW-1">
          <mxGeometry relative="1" as="geometry" />
        </mxCell>
        <mxCell id="rfzxkzYXNz0C6N27dNwW-10" value="创建时间" style="ellipse;whiteSpace=wrap;html=1;" parent="_YOtzz9naKi3cMkrxV0r-38" vertex="1">
          <mxGeometry x="310" y="82" width="90" height="60" as="geometry" />
        </mxCell>
        <mxCell id="_YOtzz9naKi3cMkrxV0r-15" style="orthogonalLoop=1;jettySize=auto;html=1;exitX=1;exitY=0.5;exitDx=0;exitDy=0;endArrow=none;endFill=0;strokeColor=#000000;" edge="1" parent="_YOtzz9naKi3cMkrxV0r-38" source="rfzxkzYXNz0C6N27dNwW-11" target="rfzxkzYXNz0C6N27dNwW-1">
          <mxGeometry relative="1" as="geometry" />
        </mxCell>
        <mxCell id="rfzxkzYXNz0C6N27dNwW-11" value="更新时间" style="ellipse;whiteSpace=wrap;html=1;" parent="_YOtzz9naKi3cMkrxV0r-38" vertex="1">
          <mxGeometry y="72" width="90" height="60" as="geometry" />
        </mxCell>
        <mxCell id="_YOtzz9naKi3cMkrxV0r-11" style="orthogonalLoop=1;jettySize=auto;html=1;entryX=1;entryY=0.5;entryDx=0;entryDy=0;endArrow=none;endFill=0;strokeColor=#000000;" edge="1" parent="_YOtzz9naKi3cMkrxV0r-38" source="rfzxkzYXNz0C6N27dNwW-18" target="rfzxkzYXNz0C6N27dNwW-1">
          <mxGeometry relative="1" as="geometry" />
        </mxCell>
        <mxCell id="rfzxkzYXNz0C6N27dNwW-18" value="头像" style="ellipse;whiteSpace=wrap;html=1;" parent="_YOtzz9naKi3cMkrxV0r-38" vertex="1">
          <mxGeometry x="249" y="8" width="90" height="60" as="geometry" />
        </mxCell>
        <mxCell id="_YOtzz9naKi3cMkrxV0r-39" value="" style="group" vertex="1" connectable="0" parent="1">
          <mxGeometry x="474" y="141" width="347" height="146" as="geometry" />
        </mxCell>
        <mxCell id="rfzxkzYXNz0C6N27dNwW-6" value="群组" style="rounded=0;whiteSpace=wrap;html=1;" parent="_YOtzz9naKi3cMkrxV0r-39" vertex="1">
          <mxGeometry x="113" y="86" width="120" height="60" as="geometry" />
        </mxCell>
        <mxCell id="_YOtzz9naKi3cMkrxV0r-23" style="edgeStyle=none;orthogonalLoop=1;jettySize=auto;html=1;exitX=1;exitY=1;exitDx=0;exitDy=0;endArrow=none;endFill=0;strokeColor=#000000;" edge="1" parent="_YOtzz9naKi3cMkrxV0r-39" source="rfzxkzYXNz0C6N27dNwW-7" target="rfzxkzYXNz0C6N27dNwW-6">
          <mxGeometry relative="1" as="geometry" />
        </mxCell>
        <mxCell id="rfzxkzYXNz0C6N27dNwW-7" value="群名" style="ellipse;whiteSpace=wrap;html=1;" parent="_YOtzz9naKi3cMkrxV0r-39" vertex="1">
          <mxGeometry x="90" y="2" width="90" height="60" as="geometry" />
        </mxCell>
        <mxCell id="_YOtzz9naKi3cMkrxV0r-21" style="edgeStyle=none;orthogonalLoop=1;jettySize=auto;html=1;exitX=0;exitY=1;exitDx=0;exitDy=0;endArrow=none;endFill=0;strokeColor=#000000;" edge="1" parent="_YOtzz9naKi3cMkrxV0r-39" source="rfzxkzYXNz0C6N27dNwW-14" target="rfzxkzYXNz0C6N27dNwW-6">
          <mxGeometry relative="1" as="geometry" />
        </mxCell>
        <mxCell id="rfzxkzYXNz0C6N27dNwW-14" value="创建时间" style="ellipse;whiteSpace=wrap;html=1;" parent="_YOtzz9naKi3cMkrxV0r-39" vertex="1">
          <mxGeometry x="257" y="60" width="90" height="60" as="geometry" />
        </mxCell>
        <mxCell id="_YOtzz9naKi3cMkrxV0r-22" style="edgeStyle=none;orthogonalLoop=1;jettySize=auto;html=1;exitX=0.5;exitY=1;exitDx=0;exitDy=0;endArrow=none;endFill=0;strokeColor=#000000;" edge="1" parent="_YOtzz9naKi3cMkrxV0r-39" source="rfzxkzYXNz0C6N27dNwW-15" target="rfzxkzYXNz0C6N27dNwW-6">
          <mxGeometry relative="1" as="geometry" />
        </mxCell>
        <mxCell id="rfzxkzYXNz0C6N27dNwW-15" value="更新时间" style="ellipse;whiteSpace=wrap;html=1;" parent="_YOtzz9naKi3cMkrxV0r-39" vertex="1">
          <mxGeometry x="200" width="90" height="60" as="geometry" />
        </mxCell>
        <mxCell id="_YOtzz9naKi3cMkrxV0r-24" style="edgeStyle=none;orthogonalLoop=1;jettySize=auto;html=1;exitX=0;exitY=0.5;exitDx=0;exitDy=0;endArrow=none;endFill=0;strokeColor=#000000;" edge="1" parent="_YOtzz9naKi3cMkrxV0r-39" source="rfzxkzYXNz0C6N27dNwW-17" target="rfzxkzYXNz0C6N27dNwW-6">
          <mxGeometry relative="1" as="geometry" />
        </mxCell>
        <mxCell id="rfzxkzYXNz0C6N27dNwW-17" value="群头像" style="ellipse;whiteSpace=wrap;html=1;" parent="_YOtzz9naKi3cMkrxV0r-39" vertex="1">
          <mxGeometry y="33" width="90" height="60" as="geometry" />
        </mxCell>
        <mxCell id="_YOtzz9naKi3cMkrxV0r-40" value="" style="group" vertex="1" connectable="0" parent="1">
          <mxGeometry x="794" y="-47" width="366" height="242" as="geometry" />
        </mxCell>
        <mxCell id="rfzxkzYXNz0C6N27dNwW-26" value="聊天消息" style="rounded=0;whiteSpace=wrap;html=1;" parent="_YOtzz9naKi3cMkrxV0r-40" vertex="1">
          <mxGeometry x="119" y="92" width="120" height="60" as="geometry" />
        </mxCell>
        <mxCell id="_YOtzz9naKi3cMkrxV0r-28" style="edgeStyle=none;orthogonalLoop=1;jettySize=auto;html=1;exitX=1;exitY=1;exitDx=0;exitDy=0;endArrow=none;endFill=0;strokeColor=#000000;" edge="1" parent="_YOtzz9naKi3cMkrxV0r-40" source="rfzxkzYXNz0C6N27dNwW-27" target="rfzxkzYXNz0C6N27dNwW-26">
          <mxGeometry relative="1" as="geometry" />
        </mxCell>
        <mxCell id="rfzxkzYXNz0C6N27dNwW-27" value="发送方" style="ellipse;whiteSpace=wrap;html=1;" parent="_YOtzz9naKi3cMkrxV0r-40" vertex="1">
          <mxGeometry x="16" y="32" width="90" height="60" as="geometry" />
        </mxCell>
        <mxCell id="_YOtzz9naKi3cMkrxV0r-29" style="edgeStyle=none;orthogonalLoop=1;jettySize=auto;html=1;exitX=0.5;exitY=1;exitDx=0;exitDy=0;endArrow=none;endFill=0;strokeColor=#000000;" edge="1" parent="_YOtzz9naKi3cMkrxV0r-40" source="rfzxkzYXNz0C6N27dNwW-28" target="rfzxkzYXNz0C6N27dNwW-26">
          <mxGeometry relative="1" as="geometry" />
        </mxCell>
        <mxCell id="rfzxkzYXNz0C6N27dNwW-28" value="接收方" style="ellipse;whiteSpace=wrap;html=1;" parent="_YOtzz9naKi3cMkrxV0r-40" vertex="1">
          <mxGeometry x="105" width="90" height="60" as="geometry" />
        </mxCell>
        <mxCell id="_YOtzz9naKi3cMkrxV0r-30" style="edgeStyle=none;orthogonalLoop=1;jettySize=auto;html=1;exitX=0.5;exitY=1;exitDx=0;exitDy=0;endArrow=none;endFill=0;strokeColor=#000000;" edge="1" parent="_YOtzz9naKi3cMkrxV0r-40" source="rfzxkzYXNz0C6N27dNwW-29" target="rfzxkzYXNz0C6N27dNwW-26">
          <mxGeometry relative="1" as="geometry" />
        </mxCell>
        <mxCell id="rfzxkzYXNz0C6N27dNwW-29" value="是否是群消息" style="ellipse;whiteSpace=wrap;html=1;" parent="_YOtzz9naKi3cMkrxV0r-40" vertex="1">
          <mxGeometry x="207" width="90" height="60" as="geometry" />
        </mxCell>
        <mxCell id="_YOtzz9naKi3cMkrxV0r-31" style="edgeStyle=none;orthogonalLoop=1;jettySize=auto;html=1;exitX=0;exitY=0.5;exitDx=0;exitDy=0;endArrow=none;endFill=0;strokeColor=#000000;" edge="1" parent="_YOtzz9naKi3cMkrxV0r-40" source="rfzxkzYXNz0C6N27dNwW-30" target="rfzxkzYXNz0C6N27dNwW-26">
          <mxGeometry relative="1" as="geometry" />
        </mxCell>
        <mxCell id="rfzxkzYXNz0C6N27dNwW-30" value="消息ID" style="ellipse;whiteSpace=wrap;html=1;" parent="_YOtzz9naKi3cMkrxV0r-40" vertex="1">
          <mxGeometry x="268" y="52" width="90" height="60" as="geometry" />
        </mxCell>
        <mxCell id="_YOtzz9naKi3cMkrxV0r-27" style="edgeStyle=none;orthogonalLoop=1;jettySize=auto;html=1;exitX=1;exitY=0.5;exitDx=0;exitDy=0;endArrow=none;endFill=0;strokeColor=#000000;" edge="1" parent="_YOtzz9naKi3cMkrxV0r-40" source="_YOtzz9naKi3cMkrxV0r-25" target="rfzxkzYXNz0C6N27dNwW-26">
          <mxGeometry relative="1" as="geometry" />
        </mxCell>
        <mxCell id="_YOtzz9naKi3cMkrxV0r-25" value="房间ID" style="ellipse;whiteSpace=wrap;html=1;" vertex="1" parent="_YOtzz9naKi3cMkrxV0r-40">
          <mxGeometry y="105" width="90" height="60" as="geometry" />
        </mxCell>
        <mxCell id="_YOtzz9naKi3cMkrxV0r-32" style="edgeStyle=none;orthogonalLoop=1;jettySize=auto;html=1;exitX=0;exitY=0.5;exitDx=0;exitDy=0;endArrow=none;endFill=0;strokeColor=#000000;" edge="1" parent="_YOtzz9naKi3cMkrxV0r-40" source="_YOtzz9naKi3cMkrxV0r-26" target="rfzxkzYXNz0C6N27dNwW-26">
          <mxGeometry relative="1" as="geometry" />
        </mxCell>
        <mxCell id="_YOtzz9naKi3cMkrxV0r-26" value="消息类型" style="ellipse;whiteSpace=wrap;html=1;" vertex="1" parent="_YOtzz9naKi3cMkrxV0r-40">
          <mxGeometry x="276" y="116" width="90" height="60" as="geometry" />
        </mxCell>
        <mxCell id="_YOtzz9naKi3cMkrxV0r-35" style="edgeStyle=none;orthogonalLoop=1;jettySize=auto;html=1;exitX=0;exitY=0;exitDx=0;exitDy=0;endArrow=none;endFill=0;strokeColor=#000000;" edge="1" parent="_YOtzz9naKi3cMkrxV0r-40" source="_YOtzz9naKi3cMkrxV0r-34" target="rfzxkzYXNz0C6N27dNwW-26">
          <mxGeometry relative="1" as="geometry" />
        </mxCell>
        <mxCell id="_YOtzz9naKi3cMkrxV0r-34" value="内容" style="ellipse;whiteSpace=wrap;html=1;" vertex="1" parent="_YOtzz9naKi3cMkrxV0r-40">
          <mxGeometry x="225" y="182" width="90" height="60" as="geometry" />
        </mxCell>
        <mxCell id="_YOtzz9naKi3cMkrxV0r-41" value="" style="group" vertex="1" connectable="0" parent="1">
          <mxGeometry x="366" y="-35" width="346" height="150" as="geometry" />
        </mxCell>
        <mxCell id="rfzxkzYXNz0C6N27dNwW-19" value="朋友" style="rounded=0;whiteSpace=wrap;html=1;" parent="_YOtzz9naKi3cMkrxV0r-41" vertex="1">
          <mxGeometry x="110" y="87" width="120" height="60" as="geometry" />
        </mxCell>
        <mxCell id="_YOtzz9naKi3cMkrxV0r-16" style="edgeStyle=none;orthogonalLoop=1;jettySize=auto;html=1;exitX=1;exitY=1;exitDx=0;exitDy=0;endArrow=none;endFill=0;strokeColor=#000000;" edge="1" parent="_YOtzz9naKi3cMkrxV0r-41" source="rfzxkzYXNz0C6N27dNwW-20" target="rfzxkzYXNz0C6N27dNwW-19">
          <mxGeometry relative="1" as="geometry" />
        </mxCell>
        <mxCell id="rfzxkzYXNz0C6N27dNwW-20" value="用户A" style="ellipse;whiteSpace=wrap;html=1;" parent="_YOtzz9naKi3cMkrxV0r-41" vertex="1">
          <mxGeometry x="22" y="21" width="90" height="60" as="geometry" />
        </mxCell>
        <mxCell id="_YOtzz9naKi3cMkrxV0r-17" style="edgeStyle=none;orthogonalLoop=1;jettySize=auto;html=1;exitX=0.5;exitY=1;exitDx=0;exitDy=0;endArrow=none;endFill=0;strokeColor=#000000;" edge="1" parent="_YOtzz9naKi3cMkrxV0r-41" source="rfzxkzYXNz0C6N27dNwW-21" target="rfzxkzYXNz0C6N27dNwW-19">
          <mxGeometry relative="1" as="geometry" />
        </mxCell>
        <mxCell id="rfzxkzYXNz0C6N27dNwW-21" value="用户B" style="ellipse;whiteSpace=wrap;html=1;" parent="_YOtzz9naKi3cMkrxV0r-41" vertex="1">
          <mxGeometry x="129" width="90" height="60" as="geometry" />
        </mxCell>
        <mxCell id="_YOtzz9naKi3cMkrxV0r-18" style="edgeStyle=none;orthogonalLoop=1;jettySize=auto;html=1;exitX=0;exitY=1;exitDx=0;exitDy=0;endArrow=none;endFill=0;strokeColor=#000000;" edge="1" parent="_YOtzz9naKi3cMkrxV0r-41" source="rfzxkzYXNz0C6N27dNwW-22" target="rfzxkzYXNz0C6N27dNwW-19">
          <mxGeometry relative="1" as="geometry" />
        </mxCell>
        <mxCell id="rfzxkzYXNz0C6N27dNwW-22" value="创建时间" style="ellipse;whiteSpace=wrap;html=1;" parent="_YOtzz9naKi3cMkrxV0r-41" vertex="1">
          <mxGeometry x="236" y="16" width="90" height="60" as="geometry" />
        </mxCell>
        <mxCell id="_YOtzz9naKi3cMkrxV0r-19" style="edgeStyle=none;orthogonalLoop=1;jettySize=auto;html=1;exitX=0;exitY=0.5;exitDx=0;exitDy=0;endArrow=none;endFill=0;strokeColor=#000000;" edge="1" parent="_YOtzz9naKi3cMkrxV0r-41" source="rfzxkzYXNz0C6N27dNwW-23" target="rfzxkzYXNz0C6N27dNwW-19">
          <mxGeometry relative="1" as="geometry" />
        </mxCell>
        <mxCell id="rfzxkzYXNz0C6N27dNwW-23" value="更新时间" style="ellipse;whiteSpace=wrap;html=1;" parent="_YOtzz9naKi3cMkrxV0r-41" vertex="1">
          <mxGeometry x="256" y="87" width="90" height="60" as="geometry" />
        </mxCell>
        <mxCell id="_YOtzz9naKi3cMkrxV0r-20" style="edgeStyle=none;orthogonalLoop=1;jettySize=auto;html=1;exitX=1;exitY=0.5;exitDx=0;exitDy=0;endArrow=none;endFill=0;strokeColor=#000000;" edge="1" parent="_YOtzz9naKi3cMkrxV0r-41" source="rfzxkzYXNz0C6N27dNwW-25" target="rfzxkzYXNz0C6N27dNwW-19">
          <mxGeometry relative="1" as="geometry" />
        </mxCell>
        <mxCell id="rfzxkzYXNz0C6N27dNwW-25" value="状态" style="ellipse;whiteSpace=wrap;html=1;" parent="_YOtzz9naKi3cMkrxV0r-41" vertex="1">
          <mxGeometry y="90" width="90" height="60" as="geometry" />
        </mxCell>
        <mxCell id="_YOtzz9naKi3cMkrxV0r-47" style="edgeStyle=none;orthogonalLoop=1;jettySize=auto;html=1;exitX=0.5;exitY=1;exitDx=0;exitDy=0;endArrow=none;endFill=0;strokeColor=#000000;entryX=0;entryY=0.5;entryDx=0;entryDy=0;" edge="1" parent="1" source="rfzxkzYXNz0C6N27dNwW-1" target="_YOtzz9naKi3cMkrxV0r-48">
          <mxGeometry relative="1" as="geometry">
            <mxPoint x="231" y="198" as="targetPoint" />
            <Array as="points">
              <mxPoint x="163" y="153" />
            </Array>
          </mxGeometry>
        </mxCell>
        <mxCell id="_YOtzz9naKi3cMkrxV0r-50" value="1" style="edgeLabel;html=1;align=center;verticalAlign=middle;resizable=0;points=[];" vertex="1" connectable="0" parent="_YOtzz9naKi3cMkrxV0r-47">
          <mxGeometry x="0.1051" y="-3" relative="1" as="geometry">
            <mxPoint y="-1" as="offset" />
          </mxGeometry>
        </mxCell>
        <mxCell id="_YOtzz9naKi3cMkrxV0r-49" style="edgeStyle=none;orthogonalLoop=1;jettySize=auto;html=1;exitX=1;exitY=0.5;exitDx=0;exitDy=0;entryX=0.412;entryY=0.99;entryDx=0;entryDy=0;entryPerimeter=0;endArrow=none;endFill=0;strokeColor=#000000;" edge="1" parent="1" source="_YOtzz9naKi3cMkrxV0r-48" target="rfzxkzYXNz0C6N27dNwW-19">
          <mxGeometry relative="1" as="geometry" />
        </mxCell>
        <mxCell id="_YOtzz9naKi3cMkrxV0r-51" value="n" style="edgeLabel;html=1;align=center;verticalAlign=middle;resizable=0;points=[];" vertex="1" connectable="0" parent="_YOtzz9naKi3cMkrxV0r-49">
          <mxGeometry x="0.1502" y="-1" relative="1" as="geometry">
            <mxPoint x="1" as="offset" />
          </mxGeometry>
        </mxCell>
        <mxCell id="_YOtzz9naKi3cMkrxV0r-48" value="拥有" style="rhombus;whiteSpace=wrap;html=1;" vertex="1" parent="1">
          <mxGeometry x="236" y="156" width="80" height="80" as="geometry" />
        </mxCell>
        <mxCell id="_YOtzz9naKi3cMkrxV0r-52" style="edgeStyle=none;orthogonalLoop=1;jettySize=auto;html=1;exitX=0.25;exitY=1;exitDx=0;exitDy=0;endArrow=none;endFill=0;strokeColor=#000000;entryX=0;entryY=0.5;entryDx=0;entryDy=0;" edge="1" parent="1" source="rfzxkzYXNz0C6N27dNwW-1" target="_YOtzz9naKi3cMkrxV0r-53">
          <mxGeometry relative="1" as="geometry">
            <mxPoint x="163.57151794433594" y="371.2858200073242" as="targetPoint" />
          </mxGeometry>
        </mxCell>
        <mxCell id="_YOtzz9naKi3cMkrxV0r-55" value="n" style="edgeLabel;html=1;align=center;verticalAlign=middle;resizable=0;points=[];" vertex="1" connectable="0" parent="_YOtzz9naKi3cMkrxV0r-52">
          <mxGeometry x="-0.3573" relative="1" as="geometry">
            <mxPoint x="-1" as="offset" />
          </mxGeometry>
        </mxCell>
        <mxCell id="_YOtzz9naKi3cMkrxV0r-54" style="edgeStyle=none;orthogonalLoop=1;jettySize=auto;html=1;exitX=1;exitY=0.5;exitDx=0;exitDy=0;entryX=0.5;entryY=1;entryDx=0;entryDy=0;endArrow=none;endFill=0;strokeColor=#000000;" edge="1" parent="1" source="_YOtzz9naKi3cMkrxV0r-53" target="rfzxkzYXNz0C6N27dNwW-6">
          <mxGeometry relative="1" as="geometry" />
        </mxCell>
        <mxCell id="_YOtzz9naKi3cMkrxV0r-56" value="n" style="edgeLabel;html=1;align=center;verticalAlign=middle;resizable=0;points=[];" vertex="1" connectable="0" parent="_YOtzz9naKi3cMkrxV0r-54">
          <mxGeometry x="-0.0634" y="3" relative="1" as="geometry">
            <mxPoint as="offset" />
          </mxGeometry>
        </mxCell>
        <mxCell id="_YOtzz9naKi3cMkrxV0r-53" value="存在" style="rhombus;whiteSpace=wrap;html=1;" vertex="1" parent="1">
          <mxGeometry x="243" y="342" width="80" height="80" as="geometry" />
        </mxCell>
      </root>
    </mxGraphModel>
  </diagram>
</mxfile>
